<mxfile host="app.diagrams.net" modified="2020-12-20T10:57:02.749Z" agent="5.0 (X11)" etag="qn7tciGW0NIKO7F4vKfl" version="14.1.1" type="github">
  <diagram id="XmkRUHc9R3Ep8rZnOr5O" name="Page-1">
    <mxGraphModel dx="974" dy="538" grid="1" gridSize="10" guides="1" tooltips="1" connect="1" arrows="1" fold="1" page="1" pageScale="1" pageWidth="827" pageHeight="1169" math="0" shadow="0">
      <root>
        <mxCell id="0" />
        <mxCell id="1" parent="0" />
        <mxCell id="nmnQj_uE-flhcafNi1ZN-1" style="rounded=0;orthogonalLoop=1;jettySize=auto;html=1;exitX=1;exitY=0.25;exitDx=0;exitDy=0;entryX=0;entryY=0.5;entryDx=0;entryDy=0;endArrow=none;endFill=0;" edge="1" parent="1" source="nmnQj_uE-flhcafNi1ZN-5" target="nmnQj_uE-flhcafNi1ZN-8">
          <mxGeometry relative="1" as="geometry" />
        </mxCell>
        <mxCell id="nmnQj_uE-flhcafNi1ZN-2" style="rounded=0;orthogonalLoop=1;jettySize=auto;html=1;exitX=1;exitY=1;exitDx=0;exitDy=0;endArrow=none;endFill=0;entryX=0.367;entryY=0.05;entryDx=0;entryDy=0;entryPerimeter=0;" edge="1" parent="1" source="nmnQj_uE-flhcafNi1ZN-5" target="nmnQj_uE-flhcafNi1ZN-13">
          <mxGeometry relative="1" as="geometry">
            <mxPoint x="360" y="210" as="targetPoint" />
          </mxGeometry>
        </mxCell>
        <mxCell id="nmnQj_uE-flhcafNi1ZN-3" style="rounded=0;orthogonalLoop=1;jettySize=auto;html=1;exitX=0;exitY=1;exitDx=0;exitDy=0;entryX=1;entryY=0;entryDx=0;entryDy=0;endArrow=none;endFill=0;" edge="1" parent="1" source="nmnQj_uE-flhcafNi1ZN-5" target="nmnQj_uE-flhcafNi1ZN-9">
          <mxGeometry relative="1" as="geometry" />
        </mxCell>
        <mxCell id="nmnQj_uE-flhcafNi1ZN-4" style="edgeStyle=none;rounded=0;orthogonalLoop=1;jettySize=auto;html=1;exitX=0.5;exitY=1;exitDx=0;exitDy=0;entryX=0.5;entryY=0;entryDx=0;entryDy=0;endArrow=none;endFill=0;" edge="1" parent="1" source="nmnQj_uE-flhcafNi1ZN-5" target="nmnQj_uE-flhcafNi1ZN-10">
          <mxGeometry relative="1" as="geometry" />
        </mxCell>
        <mxCell id="nmnQj_uE-flhcafNi1ZN-5" value="&lt;font color=&quot;#0A0A0A&quot;&gt;CUSTOMER&lt;/font&gt;" style="html=1;dashed=0;whitespace=wrap;fillColor=#f0a30a;strokeColor=#BD7000;fontColor=#ffffff;" vertex="1" parent="1">
          <mxGeometry x="210" y="160" width="90" height="30" as="geometry" />
        </mxCell>
        <mxCell id="nmnQj_uE-flhcafNi1ZN-6" style="rounded=0;orthogonalLoop=1;jettySize=auto;html=1;exitX=0.5;exitY=1;exitDx=0;exitDy=0;endArrow=none;endFill=0;" edge="1" parent="1" source="nmnQj_uE-flhcafNi1ZN-7" target="nmnQj_uE-flhcafNi1ZN-5">
          <mxGeometry relative="1" as="geometry" />
        </mxCell>
        <mxCell id="nmnQj_uE-flhcafNi1ZN-7" value="昵称" style="ellipse;whiteSpace=wrap;html=1;fillColor=#b0e3e6;strokeColor=#0e8088;" vertex="1" parent="1">
          <mxGeometry x="160" y="80" width="90" height="40" as="geometry" />
        </mxCell>
        <mxCell id="nmnQj_uE-flhcafNi1ZN-8" value="注册邮箱" style="ellipse;whiteSpace=wrap;html=1;fillColor=#b0e3e6;strokeColor=#0e8088;" vertex="1" parent="1">
          <mxGeometry x="380" y="150" width="90" height="40" as="geometry" />
        </mxCell>
        <mxCell id="nmnQj_uE-flhcafNi1ZN-9" value="收货地址" style="ellipse;whiteSpace=wrap;html=1;fillColor=#b0e3e6;strokeColor=#0e8088;" vertex="1" parent="1">
          <mxGeometry x="80" y="210" width="90" height="40" as="geometry" />
        </mxCell>
        <mxCell id="nmnQj_uE-flhcafNi1ZN-10" value="余额" style="ellipse;whiteSpace=wrap;html=1;fillColor=#b0e3e6;strokeColor=#0e8088;" vertex="1" parent="1">
          <mxGeometry x="210" y="230" width="90" height="40" as="geometry" />
        </mxCell>
        <mxCell id="nmnQj_uE-flhcafNi1ZN-11" style="rounded=0;orthogonalLoop=1;jettySize=auto;html=1;exitX=1;exitY=1;exitDx=0;exitDy=0;entryX=0;entryY=0;entryDx=0;entryDy=0;endArrow=none;endFill=0;" edge="1" parent="1" source="nmnQj_uE-flhcafNi1ZN-12" target="nmnQj_uE-flhcafNi1ZN-5">
          <mxGeometry relative="1" as="geometry" />
        </mxCell>
        <mxCell id="nmnQj_uE-flhcafNi1ZN-12" value="ID" style="ellipse;whiteSpace=wrap;html=1;fillColor=#b0e3e6;strokeColor=#0e8088;" vertex="1" parent="1">
          <mxGeometry x="40" y="130" width="90" height="40" as="geometry" />
        </mxCell>
        <mxCell id="nmnQj_uE-flhcafNi1ZN-13" value="头像" style="ellipse;whiteSpace=wrap;html=1;fillColor=#b0e3e6;strokeColor=#0e8088;" vertex="1" parent="1">
          <mxGeometry x="360" y="230" width="90" height="40" as="geometry" />
        </mxCell>
        <mxCell id="nmnQj_uE-flhcafNi1ZN-14" style="edgeStyle=none;rounded=0;orthogonalLoop=1;jettySize=auto;html=1;exitX=0.5;exitY=1;exitDx=0;exitDy=0;entryX=0.75;entryY=0;entryDx=0;entryDy=0;endArrow=none;endFill=0;" edge="1" parent="1" source="nmnQj_uE-flhcafNi1ZN-15" target="nmnQj_uE-flhcafNi1ZN-5">
          <mxGeometry relative="1" as="geometry" />
        </mxCell>
        <mxCell id="nmnQj_uE-flhcafNi1ZN-15" value="密码" style="ellipse;whiteSpace=wrap;html=1;fillColor=#b0e3e6;strokeColor=#0e8088;" vertex="1" parent="1">
          <mxGeometry x="290" y="80" width="90" height="40" as="geometry" />
        </mxCell>
        <mxCell id="nmnQj_uE-flhcafNi1ZN-16" value="&lt;font color=&quot;#0A0A0A&quot;&gt;商家&lt;/font&gt;" style="html=1;dashed=0;whitespace=wrap;fillColor=#f0a30a;strokeColor=#BD7000;fontColor=#ffffff;" vertex="1" parent="1">
          <mxGeometry x="670" y="155" width="90" height="30" as="geometry" />
        </mxCell>
        <mxCell id="nmnQj_uE-flhcafNi1ZN-17" style="edgeStyle=none;rounded=0;orthogonalLoop=1;jettySize=auto;html=1;exitX=1;exitY=0.5;exitDx=0;exitDy=0;entryX=0;entryY=0.25;entryDx=0;entryDy=0;endArrow=none;endFill=0;" edge="1" parent="1" source="nmnQj_uE-flhcafNi1ZN-18" target="nmnQj_uE-flhcafNi1ZN-16">
          <mxGeometry relative="1" as="geometry" />
        </mxCell>
        <mxCell id="nmnQj_uE-flhcafNi1ZN-18" value="ID" style="ellipse;whiteSpace=wrap;html=1;fillColor=#b0e3e6;strokeColor=#0e8088;" vertex="1" parent="1">
          <mxGeometry x="530" y="140" width="90" height="40" as="geometry" />
        </mxCell>
        <mxCell id="nmnQj_uE-flhcafNi1ZN-19" style="edgeStyle=none;rounded=0;orthogonalLoop=1;jettySize=auto;html=1;endArrow=none;endFill=0;entryX=0.5;entryY=0;entryDx=0;entryDy=0;" edge="1" parent="1" source="nmnQj_uE-flhcafNi1ZN-20" target="nmnQj_uE-flhcafNi1ZN-16">
          <mxGeometry relative="1" as="geometry">
            <mxPoint x="725" y="150" as="targetPoint" />
          </mxGeometry>
        </mxCell>
        <mxCell id="nmnQj_uE-flhcafNi1ZN-20" value="昵称" style="ellipse;whiteSpace=wrap;html=1;fillColor=#b0e3e6;strokeColor=#0e8088;" vertex="1" parent="1">
          <mxGeometry x="670" y="80" width="90" height="40" as="geometry" />
        </mxCell>
        <mxCell id="nmnQj_uE-flhcafNi1ZN-21" style="edgeStyle=none;rounded=0;orthogonalLoop=1;jettySize=auto;html=1;exitX=0;exitY=0.5;exitDx=0;exitDy=0;entryX=1;entryY=0.25;entryDx=0;entryDy=0;endArrow=none;endFill=0;" edge="1" parent="1" source="nmnQj_uE-flhcafNi1ZN-22" target="nmnQj_uE-flhcafNi1ZN-16">
          <mxGeometry relative="1" as="geometry" />
        </mxCell>
        <mxCell id="nmnQj_uE-flhcafNi1ZN-22" value="密码" style="ellipse;whiteSpace=wrap;html=1;fillColor=#b0e3e6;strokeColor=#0e8088;" vertex="1" parent="1">
          <mxGeometry x="810" y="140" width="90" height="40" as="geometry" />
        </mxCell>
        <mxCell id="nmnQj_uE-flhcafNi1ZN-23" style="edgeStyle=none;rounded=0;orthogonalLoop=1;jettySize=auto;html=1;exitX=0;exitY=0;exitDx=0;exitDy=0;entryX=0.75;entryY=1;entryDx=0;entryDy=0;endArrow=none;endFill=0;" edge="1" parent="1" source="nmnQj_uE-flhcafNi1ZN-24" target="nmnQj_uE-flhcafNi1ZN-16">
          <mxGeometry relative="1" as="geometry" />
        </mxCell>
        <mxCell id="nmnQj_uE-flhcafNi1ZN-24" value="注册邮箱" style="ellipse;whiteSpace=wrap;html=1;fillColor=#b0e3e6;strokeColor=#0e8088;" vertex="1" parent="1">
          <mxGeometry x="780" y="230" width="90" height="40" as="geometry" />
        </mxCell>
        <mxCell id="nmnQj_uE-flhcafNi1ZN-25" style="edgeStyle=none;rounded=0;orthogonalLoop=1;jettySize=auto;html=1;exitX=1;exitY=0;exitDx=0;exitDy=0;endArrow=none;endFill=0;" edge="1" parent="1" source="nmnQj_uE-flhcafNi1ZN-26" target="nmnQj_uE-flhcafNi1ZN-16">
          <mxGeometry relative="1" as="geometry" />
        </mxCell>
        <mxCell id="nmnQj_uE-flhcafNi1ZN-26" value="头像" style="ellipse;whiteSpace=wrap;html=1;fillColor=#b0e3e6;strokeColor=#0e8088;" vertex="1" parent="1">
          <mxGeometry x="570" y="230" width="90" height="40" as="geometry" />
        </mxCell>
        <mxCell id="nmnQj_uE-flhcafNi1ZN-27" style="edgeStyle=none;rounded=0;orthogonalLoop=1;jettySize=auto;html=1;exitX=1;exitY=0;exitDx=0;exitDy=0;endArrow=none;endFill=0;" edge="1" parent="1" source="nmnQj_uE-flhcafNi1ZN-28" target="nmnQj_uE-flhcafNi1ZN-34">
          <mxGeometry relative="1" as="geometry" />
        </mxCell>
        <mxCell id="nmnQj_uE-flhcafNi1ZN-28" value="所在地" style="ellipse;whiteSpace=wrap;html=1;fillColor=#b0e3e6;strokeColor=#0e8088;" vertex="1" parent="1">
          <mxGeometry x="50" y="480" width="90" height="40" as="geometry" />
        </mxCell>
        <mxCell id="nmnQj_uE-flhcafNi1ZN-29" style="edgeStyle=none;rounded=0;orthogonalLoop=1;jettySize=auto;html=1;exitX=1;exitY=0.5;exitDx=0;exitDy=0;endArrow=none;endFill=0;" edge="1" parent="1" source="nmnQj_uE-flhcafNi1ZN-30" target="nmnQj_uE-flhcafNi1ZN-34">
          <mxGeometry relative="1" as="geometry" />
        </mxCell>
        <mxCell id="nmnQj_uE-flhcafNi1ZN-30" value="店铺ID" style="ellipse;whiteSpace=wrap;html=1;fillColor=#b0e3e6;strokeColor=#0e8088;" vertex="1" parent="1">
          <mxGeometry x="40" y="400" width="90" height="40" as="geometry" />
        </mxCell>
        <mxCell id="nmnQj_uE-flhcafNi1ZN-31" style="edgeStyle=none;rounded=0;orthogonalLoop=1;jettySize=auto;html=1;exitX=0.5;exitY=1;exitDx=0;exitDy=0;endArrow=none;endFill=0;" edge="1" parent="1" source="nmnQj_uE-flhcafNi1ZN-34" target="nmnQj_uE-flhcafNi1ZN-59">
          <mxGeometry relative="1" as="geometry" />
        </mxCell>
        <mxCell id="nmnQj_uE-flhcafNi1ZN-32" style="edgeStyle=none;rounded=0;orthogonalLoop=1;jettySize=auto;html=1;exitX=0.75;exitY=1;exitDx=0;exitDy=0;endArrow=none;endFill=0;" edge="1" parent="1" source="nmnQj_uE-flhcafNi1ZN-34" target="nmnQj_uE-flhcafNi1ZN-60">
          <mxGeometry relative="1" as="geometry" />
        </mxCell>
        <mxCell id="nmnQj_uE-flhcafNi1ZN-33" style="rounded=0;orthogonalLoop=1;jettySize=auto;html=1;exitX=1;exitY=1;exitDx=0;exitDy=0;entryX=0;entryY=0;entryDx=0;entryDy=0;startArrow=none;startFill=0;endArrow=none;endFill=0;" edge="1" parent="1" source="nmnQj_uE-flhcafNi1ZN-34" target="nmnQj_uE-flhcafNi1ZN-114">
          <mxGeometry relative="1" as="geometry" />
        </mxCell>
        <mxCell id="nmnQj_uE-flhcafNi1ZN-34" value="&lt;font color=&quot;#0A0A0A&quot;&gt;店铺&lt;/font&gt;" style="html=1;dashed=0;whitespace=wrap;fillColor=#f0a30a;strokeColor=#BD7000;fontColor=#ffffff;" vertex="1" parent="1">
          <mxGeometry x="170" y="460" width="90" height="30" as="geometry" />
        </mxCell>
        <mxCell id="nmnQj_uE-flhcafNi1ZN-35" style="edgeStyle=none;rounded=0;orthogonalLoop=1;jettySize=auto;html=1;exitX=0.5;exitY=1;exitDx=0;exitDy=0;entryX=0.5;entryY=0;entryDx=0;entryDy=0;endArrow=none;endFill=0;" edge="1" parent="1" source="nmnQj_uE-flhcafNi1ZN-36" target="nmnQj_uE-flhcafNi1ZN-34">
          <mxGeometry relative="1" as="geometry" />
        </mxCell>
        <mxCell id="nmnQj_uE-flhcafNi1ZN-36" value="商家ID" style="ellipse;whiteSpace=wrap;html=1;fillColor=#b0e3e6;strokeColor=#0e8088;" vertex="1" parent="1">
          <mxGeometry x="170" y="390" width="90" height="40" as="geometry" />
        </mxCell>
        <mxCell id="nmnQj_uE-flhcafNi1ZN-37" style="edgeStyle=none;rounded=0;orthogonalLoop=1;jettySize=auto;html=1;exitX=0;exitY=0.5;exitDx=0;exitDy=0;entryX=1;entryY=0.25;entryDx=0;entryDy=0;endArrow=none;endFill=0;" edge="1" parent="1" source="nmnQj_uE-flhcafNi1ZN-38" target="nmnQj_uE-flhcafNi1ZN-34">
          <mxGeometry relative="1" as="geometry" />
        </mxCell>
        <mxCell id="nmnQj_uE-flhcafNi1ZN-38" value="店铺名称" style="ellipse;whiteSpace=wrap;html=1;fillColor=#b0e3e6;strokeColor=#0e8088;" vertex="1" parent="1">
          <mxGeometry x="310" y="400" width="90" height="40" as="geometry" />
        </mxCell>
        <mxCell id="nmnQj_uE-flhcafNi1ZN-39" style="edgeStyle=none;rounded=0;orthogonalLoop=1;jettySize=auto;html=1;exitX=0;exitY=0;exitDx=0;exitDy=0;entryX=1;entryY=0.75;entryDx=0;entryDy=0;endArrow=none;endFill=0;" edge="1" parent="1" source="nmnQj_uE-flhcafNi1ZN-40" target="nmnQj_uE-flhcafNi1ZN-34">
          <mxGeometry relative="1" as="geometry" />
        </mxCell>
        <mxCell id="nmnQj_uE-flhcafNi1ZN-40" value="店铺描述" style="ellipse;whiteSpace=wrap;html=1;fillColor=#b0e3e6;strokeColor=#0e8088;" vertex="1" parent="1">
          <mxGeometry x="324" y="460" width="90" height="40" as="geometry" />
        </mxCell>
        <mxCell id="nmnQj_uE-flhcafNi1ZN-41" value="" style="edgeStyle=none;rounded=0;orthogonalLoop=1;jettySize=auto;html=1;endArrow=none;endFill=0;" edge="1" parent="1" source="nmnQj_uE-flhcafNi1ZN-50" target="nmnQj_uE-flhcafNi1ZN-57">
          <mxGeometry relative="1" as="geometry" />
        </mxCell>
        <mxCell id="nmnQj_uE-flhcafNi1ZN-42" style="edgeStyle=none;rounded=0;orthogonalLoop=1;jettySize=auto;html=1;exitX=1;exitY=0.25;exitDx=0;exitDy=0;entryX=0;entryY=0.5;entryDx=0;entryDy=0;endArrow=none;endFill=0;" edge="1" parent="1" source="nmnQj_uE-flhcafNi1ZN-50" target="nmnQj_uE-flhcafNi1ZN-53">
          <mxGeometry relative="1" as="geometry" />
        </mxCell>
        <mxCell id="nmnQj_uE-flhcafNi1ZN-43" style="edgeStyle=none;rounded=0;orthogonalLoop=1;jettySize=auto;html=1;exitX=0.75;exitY=0;exitDx=0;exitDy=0;endArrow=none;endFill=0;" edge="1" parent="1" source="nmnQj_uE-flhcafNi1ZN-50" target="nmnQj_uE-flhcafNi1ZN-54">
          <mxGeometry relative="1" as="geometry" />
        </mxCell>
        <mxCell id="nmnQj_uE-flhcafNi1ZN-44" style="edgeStyle=none;rounded=0;orthogonalLoop=1;jettySize=auto;html=1;exitX=0.5;exitY=0;exitDx=0;exitDy=0;entryX=0.5;entryY=1;entryDx=0;entryDy=0;endArrow=none;endFill=0;" edge="1" parent="1" source="nmnQj_uE-flhcafNi1ZN-50" target="nmnQj_uE-flhcafNi1ZN-51">
          <mxGeometry relative="1" as="geometry" />
        </mxCell>
        <mxCell id="nmnQj_uE-flhcafNi1ZN-45" style="edgeStyle=none;rounded=0;orthogonalLoop=1;jettySize=auto;html=1;exitX=0.25;exitY=0;exitDx=0;exitDy=0;entryX=1;entryY=1;entryDx=0;entryDy=0;endArrow=none;endFill=0;" edge="1" parent="1" source="nmnQj_uE-flhcafNi1ZN-50" target="nmnQj_uE-flhcafNi1ZN-52">
          <mxGeometry relative="1" as="geometry" />
        </mxCell>
        <mxCell id="nmnQj_uE-flhcafNi1ZN-46" style="edgeStyle=none;rounded=0;orthogonalLoop=1;jettySize=auto;html=1;exitX=0;exitY=0.5;exitDx=0;exitDy=0;entryX=1;entryY=0;entryDx=0;entryDy=0;endArrow=none;endFill=0;" edge="1" parent="1" source="nmnQj_uE-flhcafNi1ZN-50" target="nmnQj_uE-flhcafNi1ZN-55">
          <mxGeometry relative="1" as="geometry" />
        </mxCell>
        <mxCell id="nmnQj_uE-flhcafNi1ZN-47" style="edgeStyle=none;rounded=0;orthogonalLoop=1;jettySize=auto;html=1;exitX=0.25;exitY=1;exitDx=0;exitDy=0;endArrow=none;endFill=0;" edge="1" parent="1" source="nmnQj_uE-flhcafNi1ZN-50" target="nmnQj_uE-flhcafNi1ZN-56">
          <mxGeometry relative="1" as="geometry" />
        </mxCell>
        <mxCell id="nmnQj_uE-flhcafNi1ZN-48" style="edgeStyle=none;rounded=0;orthogonalLoop=1;jettySize=auto;html=1;exitX=0.75;exitY=1;exitDx=0;exitDy=0;endArrow=none;endFill=0;" edge="1" parent="1" source="nmnQj_uE-flhcafNi1ZN-50" target="nmnQj_uE-flhcafNi1ZN-58">
          <mxGeometry relative="1" as="geometry" />
        </mxCell>
        <mxCell id="nmnQj_uE-flhcafNi1ZN-49" style="edgeStyle=none;rounded=0;orthogonalLoop=1;jettySize=auto;html=1;exitX=0.5;exitY=1;exitDx=0;exitDy=0;entryX=0.5;entryY=0;entryDx=0;entryDy=0;endArrow=none;endFill=0;" edge="1" parent="1" source="nmnQj_uE-flhcafNi1ZN-50" target="nmnQj_uE-flhcafNi1ZN-61">
          <mxGeometry relative="1" as="geometry" />
        </mxCell>
        <mxCell id="nmnQj_uE-flhcafNi1ZN-50" value="&lt;font color=&quot;#0A0A0A&quot;&gt;商品&lt;/font&gt;" style="html=1;dashed=0;whitespace=wrap;fillColor=#f0a30a;strokeColor=#BD7000;fontColor=#ffffff;" vertex="1" parent="1">
          <mxGeometry x="660" y="460" width="90" height="30" as="geometry" />
        </mxCell>
        <mxCell id="nmnQj_uE-flhcafNi1ZN-51" value="店铺ID" style="ellipse;whiteSpace=wrap;html=1;fillColor=#b0e3e6;strokeColor=#0e8088;" vertex="1" parent="1">
          <mxGeometry x="630" y="360" width="90" height="40" as="geometry" />
        </mxCell>
        <mxCell id="nmnQj_uE-flhcafNi1ZN-52" value="商品ID" style="ellipse;whiteSpace=wrap;html=1;fillColor=#b0e3e6;strokeColor=#0e8088;" vertex="1" parent="1">
          <mxGeometry x="540" y="370" width="90" height="40" as="geometry" />
        </mxCell>
        <mxCell id="nmnQj_uE-flhcafNi1ZN-53" value="种类" style="ellipse;whiteSpace=wrap;html=1;fillColor=#b0e3e6;strokeColor=#0e8088;" vertex="1" parent="1">
          <mxGeometry x="827" y="400" width="90" height="40" as="geometry" />
        </mxCell>
        <mxCell id="nmnQj_uE-flhcafNi1ZN-54" value="名称" style="ellipse;whiteSpace=wrap;html=1;fillColor=#b0e3e6;strokeColor=#0e8088;" vertex="1" parent="1">
          <mxGeometry x="730" y="360" width="90" height="40" as="geometry" />
        </mxCell>
        <mxCell id="nmnQj_uE-flhcafNi1ZN-55" value="价格" style="ellipse;whiteSpace=wrap;html=1;fillColor=#b0e3e6;strokeColor=#0e8088;" vertex="1" parent="1">
          <mxGeometry x="480" y="480" width="90" height="40" as="geometry" />
        </mxCell>
        <mxCell id="nmnQj_uE-flhcafNi1ZN-56" value="库存" style="ellipse;whiteSpace=wrap;html=1;fillColor=#b0e3e6;strokeColor=#0e8088;" vertex="1" parent="1">
          <mxGeometry x="500" y="530" width="90" height="40" as="geometry" />
        </mxCell>
        <mxCell id="nmnQj_uE-flhcafNi1ZN-57" value="描述" style="ellipse;whiteSpace=wrap;html=1;fillColor=#b0e3e6;strokeColor=#0e8088;" vertex="1" parent="1">
          <mxGeometry x="840" y="470" width="90" height="40" as="geometry" />
        </mxCell>
        <mxCell id="nmnQj_uE-flhcafNi1ZN-58" value="图片" style="ellipse;whiteSpace=wrap;html=1;fillColor=#b0e3e6;strokeColor=#0e8088;" vertex="1" parent="1">
          <mxGeometry x="800" y="540" width="90" height="40" as="geometry" />
        </mxCell>
        <mxCell id="nmnQj_uE-flhcafNi1ZN-59" value="访问量" style="ellipse;whiteSpace=wrap;html=1;fillColor=#b0e3e6;strokeColor=#0e8088;" vertex="1" parent="1">
          <mxGeometry x="70" y="530" width="90" height="40" as="geometry" />
        </mxCell>
        <mxCell id="nmnQj_uE-flhcafNi1ZN-60" value="星级" style="ellipse;whiteSpace=wrap;html=1;fillColor=#b0e3e6;strokeColor=#0e8088;" vertex="1" parent="1">
          <mxGeometry x="180" y="540" width="90" height="40" as="geometry" />
        </mxCell>
        <mxCell id="nmnQj_uE-flhcafNi1ZN-61" value="星级" style="ellipse;whiteSpace=wrap;html=1;fillColor=#b0e3e6;strokeColor=#0e8088;" vertex="1" parent="1">
          <mxGeometry x="580" y="560" width="90" height="40" as="geometry" />
        </mxCell>
        <mxCell id="nmnQj_uE-flhcafNi1ZN-62" style="edgeStyle=none;rounded=0;orthogonalLoop=1;jettySize=auto;html=1;exitX=0.5;exitY=0;exitDx=0;exitDy=0;endArrow=none;endFill=0;entryX=0.644;entryY=1.067;entryDx=0;entryDy=0;entryPerimeter=0;" edge="1" parent="1" source="nmnQj_uE-flhcafNi1ZN-63" target="nmnQj_uE-flhcafNi1ZN-50">
          <mxGeometry relative="1" as="geometry" />
        </mxCell>
        <mxCell id="nmnQj_uE-flhcafNi1ZN-63" value="评价数" style="ellipse;whiteSpace=wrap;html=1;fillColor=#b0e3e6;strokeColor=#0e8088;" vertex="1" parent="1">
          <mxGeometry x="690" y="560" width="90" height="40" as="geometry" />
        </mxCell>
        <mxCell id="nmnQj_uE-flhcafNi1ZN-64" style="rounded=0;orthogonalLoop=1;jettySize=auto;html=1;exitX=0.25;exitY=0;exitDx=0;exitDy=0;endArrow=none;endFill=0;" edge="1" parent="1" source="nmnQj_uE-flhcafNi1ZN-68" target="nmnQj_uE-flhcafNi1ZN-69">
          <mxGeometry relative="1" as="geometry" />
        </mxCell>
        <mxCell id="nmnQj_uE-flhcafNi1ZN-65" style="edgeStyle=none;rounded=0;orthogonalLoop=1;jettySize=auto;html=1;exitX=0.75;exitY=0;exitDx=0;exitDy=0;endArrow=none;endFill=0;" edge="1" parent="1" source="nmnQj_uE-flhcafNi1ZN-68" target="nmnQj_uE-flhcafNi1ZN-70">
          <mxGeometry relative="1" as="geometry" />
        </mxCell>
        <mxCell id="nmnQj_uE-flhcafNi1ZN-66" style="edgeStyle=none;rounded=0;orthogonalLoop=1;jettySize=auto;html=1;exitX=0.75;exitY=1;exitDx=0;exitDy=0;endArrow=none;endFill=0;" edge="1" parent="1" source="nmnQj_uE-flhcafNi1ZN-68" target="nmnQj_uE-flhcafNi1ZN-72">
          <mxGeometry relative="1" as="geometry" />
        </mxCell>
        <mxCell id="nmnQj_uE-flhcafNi1ZN-67" style="edgeStyle=none;rounded=0;orthogonalLoop=1;jettySize=auto;html=1;exitX=0.25;exitY=1;exitDx=0;exitDy=0;entryX=0.711;entryY=0.025;entryDx=0;entryDy=0;entryPerimeter=0;endArrow=none;endFill=0;" edge="1" parent="1" source="nmnQj_uE-flhcafNi1ZN-68" target="nmnQj_uE-flhcafNi1ZN-71">
          <mxGeometry relative="1" as="geometry" />
        </mxCell>
        <mxCell id="nmnQj_uE-flhcafNi1ZN-68" value="&lt;font color=&quot;#0A0A0A&quot;&gt;评论&lt;/font&gt;" style="html=1;dashed=0;whitespace=wrap;fillColor=#f0a30a;strokeColor=#BD7000;fontColor=#ffffff;" vertex="1" parent="1">
          <mxGeometry x="150" y="740" width="90" height="30" as="geometry" />
        </mxCell>
        <mxCell id="nmnQj_uE-flhcafNi1ZN-69" value="用户ID" style="ellipse;whiteSpace=wrap;html=1;fillColor=#b0e3e6;strokeColor=#0e8088;" vertex="1" parent="1">
          <mxGeometry x="60" y="670" width="90" height="40" as="geometry" />
        </mxCell>
        <mxCell id="nmnQj_uE-flhcafNi1ZN-70" value="商品ID" style="ellipse;whiteSpace=wrap;html=1;fillColor=#b0e3e6;strokeColor=#0e8088;" vertex="1" parent="1">
          <mxGeometry x="240" y="670" width="90" height="40" as="geometry" />
        </mxCell>
        <mxCell id="nmnQj_uE-flhcafNi1ZN-71" value="评分" style="ellipse;whiteSpace=wrap;html=1;fillColor=#b0e3e6;strokeColor=#0e8088;" vertex="1" parent="1">
          <mxGeometry x="50" y="790" width="90" height="40" as="geometry" />
        </mxCell>
        <mxCell id="nmnQj_uE-flhcafNi1ZN-72" value="评论内容" style="ellipse;whiteSpace=wrap;html=1;fillColor=#b0e3e6;strokeColor=#0e8088;" vertex="1" parent="1">
          <mxGeometry x="250" y="790" width="90" height="40" as="geometry" />
        </mxCell>
        <mxCell id="nmnQj_uE-flhcafNi1ZN-73" style="edgeStyle=none;rounded=0;orthogonalLoop=1;jettySize=auto;html=1;exitX=1;exitY=0.5;exitDx=0;exitDy=0;endArrow=none;endFill=0;" edge="1" parent="1" source="nmnQj_uE-flhcafNi1ZN-74" target="nmnQj_uE-flhcafNi1ZN-113">
          <mxGeometry relative="1" as="geometry" />
        </mxCell>
        <mxCell id="nmnQj_uE-flhcafNi1ZN-74" value="&lt;font color=&quot;#0A0A0A&quot;&gt;优惠券&lt;/font&gt;" style="html=1;dashed=0;whitespace=wrap;fillColor=#f0a30a;strokeColor=#BD7000;fontColor=#ffffff;" vertex="1" parent="1">
          <mxGeometry x="670" y="740" width="90" height="30" as="geometry" />
        </mxCell>
        <mxCell id="nmnQj_uE-flhcafNi1ZN-75" style="edgeStyle=none;rounded=0;orthogonalLoop=1;jettySize=auto;html=1;exitX=1;exitY=0;exitDx=0;exitDy=0;entryX=0;entryY=0.75;entryDx=0;entryDy=0;endArrow=none;endFill=0;" edge="1" parent="1" source="nmnQj_uE-flhcafNi1ZN-76" target="nmnQj_uE-flhcafNi1ZN-74">
          <mxGeometry relative="1" as="geometry" />
        </mxCell>
        <mxCell id="nmnQj_uE-flhcafNi1ZN-76" value="商铺ID" style="ellipse;whiteSpace=wrap;html=1;fillColor=#b0e3e6;strokeColor=#0e8088;" vertex="1" parent="1">
          <mxGeometry x="560" y="790" width="90" height="40" as="geometry" />
        </mxCell>
        <mxCell id="nmnQj_uE-flhcafNi1ZN-77" style="edgeStyle=none;rounded=0;orthogonalLoop=1;jettySize=auto;html=1;exitX=0.5;exitY=1;exitDx=0;exitDy=0;endArrow=none;endFill=0;" edge="1" parent="1" source="nmnQj_uE-flhcafNi1ZN-78" target="nmnQj_uE-flhcafNi1ZN-74">
          <mxGeometry relative="1" as="geometry" />
        </mxCell>
        <mxCell id="nmnQj_uE-flhcafNi1ZN-78" value="起始时间" style="ellipse;whiteSpace=wrap;html=1;fillColor=#b0e3e6;strokeColor=#0e8088;" vertex="1" parent="1">
          <mxGeometry x="800" y="670" width="90" height="40" as="geometry" />
        </mxCell>
        <mxCell id="nmnQj_uE-flhcafNi1ZN-79" style="edgeStyle=none;rounded=0;orthogonalLoop=1;jettySize=auto;html=1;exitX=0.5;exitY=0;exitDx=0;exitDy=0;entryX=0.5;entryY=1;entryDx=0;entryDy=0;endArrow=none;endFill=0;" edge="1" parent="1" source="nmnQj_uE-flhcafNi1ZN-80" target="nmnQj_uE-flhcafNi1ZN-74">
          <mxGeometry relative="1" as="geometry" />
        </mxCell>
        <mxCell id="nmnQj_uE-flhcafNi1ZN-80" value="金额" style="ellipse;whiteSpace=wrap;html=1;fillColor=#b0e3e6;strokeColor=#0e8088;" vertex="1" parent="1">
          <mxGeometry x="680" y="800" width="90" height="40" as="geometry" />
        </mxCell>
        <mxCell id="nmnQj_uE-flhcafNi1ZN-81" style="edgeStyle=none;rounded=0;orthogonalLoop=1;jettySize=auto;html=1;exitX=1;exitY=1;exitDx=0;exitDy=0;endArrow=none;endFill=0;" edge="1" parent="1" source="nmnQj_uE-flhcafNi1ZN-82" target="nmnQj_uE-flhcafNi1ZN-74">
          <mxGeometry relative="1" as="geometry" />
        </mxCell>
        <mxCell id="nmnQj_uE-flhcafNi1ZN-82" value="优惠券ID" style="ellipse;whiteSpace=wrap;html=1;fillColor=#b0e3e6;strokeColor=#0e8088;" vertex="1" parent="1">
          <mxGeometry x="570" y="670" width="90" height="40" as="geometry" />
        </mxCell>
        <mxCell id="nmnQj_uE-flhcafNi1ZN-83" value="&lt;font color=&quot;#0A0A0A&quot;&gt;购物车&lt;/font&gt;" style="html=1;dashed=0;whitespace=wrap;fillColor=#f0a30a;strokeColor=#BD7000;fontColor=#ffffff;" vertex="1" parent="1">
          <mxGeometry x="150" y="1020" width="90" height="30" as="geometry" />
        </mxCell>
        <mxCell id="nmnQj_uE-flhcafNi1ZN-84" style="edgeStyle=none;rounded=0;orthogonalLoop=1;jettySize=auto;html=1;exitX=0.5;exitY=1;exitDx=0;exitDy=0;entryX=0.25;entryY=0;entryDx=0;entryDy=0;endArrow=none;endFill=0;" edge="1" parent="1" source="nmnQj_uE-flhcafNi1ZN-85" target="nmnQj_uE-flhcafNi1ZN-83">
          <mxGeometry relative="1" as="geometry" />
        </mxCell>
        <mxCell id="nmnQj_uE-flhcafNi1ZN-85" value="用户ID" style="ellipse;whiteSpace=wrap;html=1;fillColor=#b0e3e6;strokeColor=#0e8088;" vertex="1" parent="1">
          <mxGeometry x="60" y="960" width="90" height="40" as="geometry" />
        </mxCell>
        <mxCell id="nmnQj_uE-flhcafNi1ZN-86" style="edgeStyle=none;rounded=0;orthogonalLoop=1;jettySize=auto;html=1;exitX=0.5;exitY=1;exitDx=0;exitDy=0;entryX=0.75;entryY=0;entryDx=0;entryDy=0;endArrow=none;endFill=0;" edge="1" parent="1" source="nmnQj_uE-flhcafNi1ZN-87" target="nmnQj_uE-flhcafNi1ZN-83">
          <mxGeometry relative="1" as="geometry" />
        </mxCell>
        <mxCell id="nmnQj_uE-flhcafNi1ZN-87" value="购物车内容" style="ellipse;whiteSpace=wrap;html=1;fillColor=#b0e3e6;strokeColor=#0e8088;" vertex="1" parent="1">
          <mxGeometry x="240" y="960" width="90" height="40" as="geometry" />
        </mxCell>
        <mxCell id="nmnQj_uE-flhcafNi1ZN-88" style="edgeStyle=none;rounded=0;orthogonalLoop=1;jettySize=auto;html=1;exitX=0.75;exitY=1;exitDx=0;exitDy=0;endArrow=none;endFill=0;" edge="1" parent="1" source="nmnQj_uE-flhcafNi1ZN-92" target="nmnQj_uE-flhcafNi1ZN-98">
          <mxGeometry relative="1" as="geometry" />
        </mxCell>
        <mxCell id="nmnQj_uE-flhcafNi1ZN-89" style="edgeStyle=none;rounded=0;orthogonalLoop=1;jettySize=auto;html=1;exitX=0.25;exitY=1;exitDx=0;exitDy=0;endArrow=none;endFill=0;" edge="1" parent="1" source="nmnQj_uE-flhcafNi1ZN-92" target="nmnQj_uE-flhcafNi1ZN-97">
          <mxGeometry relative="1" as="geometry" />
        </mxCell>
        <mxCell id="nmnQj_uE-flhcafNi1ZN-90" style="edgeStyle=none;rounded=0;orthogonalLoop=1;jettySize=auto;html=1;exitX=0.5;exitY=1;exitDx=0;exitDy=0;endArrow=none;endFill=0;entryX=0.5;entryY=0;entryDx=0;entryDy=0;" edge="1" parent="1" source="nmnQj_uE-flhcafNi1ZN-92" target="nmnQj_uE-flhcafNi1ZN-104">
          <mxGeometry relative="1" as="geometry">
            <mxPoint x="745" y="1080" as="targetPoint" />
          </mxGeometry>
        </mxCell>
        <mxCell id="nmnQj_uE-flhcafNi1ZN-91" style="edgeStyle=none;rounded=0;orthogonalLoop=1;jettySize=auto;html=1;exitX=0.75;exitY=1;exitDx=0;exitDy=0;entryX=0.5;entryY=0;entryDx=0;entryDy=0;endArrow=none;endFill=0;" edge="1" parent="1" source="nmnQj_uE-flhcafNi1ZN-92" target="nmnQj_uE-flhcafNi1ZN-107">
          <mxGeometry relative="1" as="geometry" />
        </mxCell>
        <mxCell id="nmnQj_uE-flhcafNi1ZN-92" value="&lt;font color=&quot;#0A0A0A&quot;&gt;购买记录&lt;/font&gt;" style="html=1;dashed=0;whitespace=wrap;fillColor=#f0a30a;strokeColor=#BD7000;fontColor=#ffffff;" vertex="1" parent="1">
          <mxGeometry x="700" y="1020" width="90" height="30" as="geometry" />
        </mxCell>
        <mxCell id="nmnQj_uE-flhcafNi1ZN-93" style="edgeStyle=none;rounded=0;orthogonalLoop=1;jettySize=auto;html=1;exitX=1;exitY=1;exitDx=0;exitDy=0;entryX=0.25;entryY=0;entryDx=0;entryDy=0;endArrow=none;endFill=0;" edge="1" parent="1" source="nmnQj_uE-flhcafNi1ZN-94" target="nmnQj_uE-flhcafNi1ZN-92">
          <mxGeometry relative="1" as="geometry" />
        </mxCell>
        <mxCell id="nmnQj_uE-flhcafNi1ZN-94" value="用户ID" style="ellipse;whiteSpace=wrap;html=1;fillColor=#b0e3e6;strokeColor=#0e8088;" vertex="1" parent="1">
          <mxGeometry x="570" y="960" width="90" height="40" as="geometry" />
        </mxCell>
        <mxCell id="nmnQj_uE-flhcafNi1ZN-95" style="edgeStyle=none;rounded=0;orthogonalLoop=1;jettySize=auto;html=1;exitX=0.5;exitY=1;exitDx=0;exitDy=0;entryX=0.5;entryY=0;entryDx=0;entryDy=0;endArrow=none;endFill=0;" edge="1" parent="1" source="nmnQj_uE-flhcafNi1ZN-96" target="nmnQj_uE-flhcafNi1ZN-92">
          <mxGeometry relative="1" as="geometry" />
        </mxCell>
        <mxCell id="nmnQj_uE-flhcafNi1ZN-96" value="商品ID" style="ellipse;whiteSpace=wrap;html=1;fillColor=#b0e3e6;strokeColor=#0e8088;" vertex="1" parent="1">
          <mxGeometry x="700" y="950" width="90" height="40" as="geometry" />
        </mxCell>
        <mxCell id="nmnQj_uE-flhcafNi1ZN-97" value="购买时间" style="ellipse;whiteSpace=wrap;html=1;fillColor=#b0e3e6;strokeColor=#0e8088;" vertex="1" parent="1">
          <mxGeometry x="560" y="1050" width="90" height="40" as="geometry" />
        </mxCell>
        <mxCell id="nmnQj_uE-flhcafNi1ZN-98" value="交易金额" style="ellipse;whiteSpace=wrap;html=1;fillColor=#b0e3e6;strokeColor=#0e8088;" vertex="1" parent="1">
          <mxGeometry x="827" y="970" width="90" height="40" as="geometry" />
        </mxCell>
        <mxCell id="nmnQj_uE-flhcafNi1ZN-99" value="&lt;font color=&quot;#050505&quot;&gt;收藏&lt;/font&gt;" style="html=1;dashed=0;whitespace=wrap;fillColor=#f0a30a;strokeColor=#BD7000;fontColor=#ffffff;" vertex="1" parent="1">
          <mxGeometry x="150" y="1169" width="90" height="30" as="geometry" />
        </mxCell>
        <mxCell id="nmnQj_uE-flhcafNi1ZN-100" style="edgeStyle=none;rounded=0;orthogonalLoop=1;jettySize=auto;html=1;exitX=1;exitY=1;exitDx=0;exitDy=0;endArrow=none;endFill=0;" edge="1" parent="1" source="nmnQj_uE-flhcafNi1ZN-101" target="nmnQj_uE-flhcafNi1ZN-99">
          <mxGeometry relative="1" as="geometry" />
        </mxCell>
        <mxCell id="nmnQj_uE-flhcafNi1ZN-101" value="用户ID" style="ellipse;whiteSpace=wrap;html=1;fillColor=#b0e3e6;strokeColor=#0e8088;" vertex="1" parent="1">
          <mxGeometry x="60" y="1110" width="90" height="40" as="geometry" />
        </mxCell>
        <mxCell id="nmnQj_uE-flhcafNi1ZN-102" style="edgeStyle=none;rounded=0;orthogonalLoop=1;jettySize=auto;html=1;exitX=0;exitY=1;exitDx=0;exitDy=0;entryX=0.75;entryY=0;entryDx=0;entryDy=0;endArrow=none;endFill=0;" edge="1" parent="1" source="nmnQj_uE-flhcafNi1ZN-103" target="nmnQj_uE-flhcafNi1ZN-99">
          <mxGeometry relative="1" as="geometry" />
        </mxCell>
        <mxCell id="nmnQj_uE-flhcafNi1ZN-103" value="商品ID" style="ellipse;whiteSpace=wrap;html=1;fillColor=#b0e3e6;strokeColor=#0e8088;" vertex="1" parent="1">
          <mxGeometry x="260" y="1110" width="90" height="40" as="geometry" />
        </mxCell>
        <mxCell id="nmnQj_uE-flhcafNi1ZN-104" value="使用优惠券名称" style="ellipse;whiteSpace=wrap;html=1;fillColor=#b0e3e6;strokeColor=#0e8088;" vertex="1" parent="1">
          <mxGeometry x="670" y="1100" width="90" height="40" as="geometry" />
        </mxCell>
        <mxCell id="nmnQj_uE-flhcafNi1ZN-105" style="edgeStyle=none;rounded=0;orthogonalLoop=1;jettySize=auto;html=1;exitX=0.5;exitY=1;exitDx=0;exitDy=0;entryX=0.5;entryY=0;entryDx=0;entryDy=0;endArrow=none;endFill=0;" edge="1" parent="1" source="nmnQj_uE-flhcafNi1ZN-106" target="nmnQj_uE-flhcafNi1ZN-74">
          <mxGeometry relative="1" as="geometry" />
        </mxCell>
        <mxCell id="nmnQj_uE-flhcafNi1ZN-106" value="名称" style="ellipse;whiteSpace=wrap;html=1;fillColor=#b0e3e6;strokeColor=#0e8088;" vertex="1" parent="1">
          <mxGeometry x="690" y="660" width="90" height="40" as="geometry" />
        </mxCell>
        <mxCell id="nmnQj_uE-flhcafNi1ZN-107" value="优惠金额" style="ellipse;whiteSpace=wrap;html=1;fillColor=#b0e3e6;strokeColor=#0e8088;" vertex="1" parent="1">
          <mxGeometry x="810" y="1090" width="90" height="40" as="geometry" />
        </mxCell>
        <mxCell id="nmnQj_uE-flhcafNi1ZN-108" value="&lt;font color=&quot;#0D0D0D&quot;&gt;用户剩余优惠券&lt;/font&gt;" style="html=1;dashed=0;whitespace=wrap;fillColor=#f0a30a;strokeColor=#BD7000;fontColor=#ffffff;" vertex="1" parent="1">
          <mxGeometry x="150" y="1290" width="100" height="30" as="geometry" />
        </mxCell>
        <mxCell id="nmnQj_uE-flhcafNi1ZN-109" style="edgeStyle=none;rounded=0;orthogonalLoop=1;jettySize=auto;html=1;exitX=1;exitY=1;exitDx=0;exitDy=0;entryX=0.25;entryY=0;entryDx=0;entryDy=0;endArrow=none;endFill=0;" edge="1" parent="1" source="nmnQj_uE-flhcafNi1ZN-110" target="nmnQj_uE-flhcafNi1ZN-108">
          <mxGeometry relative="1" as="geometry" />
        </mxCell>
        <mxCell id="nmnQj_uE-flhcafNi1ZN-110" value="用户ID" style="ellipse;whiteSpace=wrap;html=1;fillColor=#b0e3e6;strokeColor=#0e8088;" vertex="1" parent="1">
          <mxGeometry x="50" y="1240" width="90" height="40" as="geometry" />
        </mxCell>
        <mxCell id="nmnQj_uE-flhcafNi1ZN-111" style="edgeStyle=none;rounded=0;orthogonalLoop=1;jettySize=auto;html=1;exitX=0.5;exitY=1;exitDx=0;exitDy=0;entryX=0.75;entryY=0;entryDx=0;entryDy=0;endArrow=none;endFill=0;" edge="1" parent="1" source="nmnQj_uE-flhcafNi1ZN-112" target="nmnQj_uE-flhcafNi1ZN-108">
          <mxGeometry relative="1" as="geometry" />
        </mxCell>
        <mxCell id="nmnQj_uE-flhcafNi1ZN-112" value="优惠券ID" style="ellipse;whiteSpace=wrap;html=1;fillColor=#b0e3e6;strokeColor=#0e8088;" vertex="1" parent="1">
          <mxGeometry x="260" y="1240" width="90" height="40" as="geometry" />
        </mxCell>
        <mxCell id="nmnQj_uE-flhcafNi1ZN-113" value="结束时间" style="ellipse;whiteSpace=wrap;html=1;fillColor=#b0e3e6;strokeColor=#0e8088;" vertex="1" parent="1">
          <mxGeometry x="800" y="770" width="90" height="40" as="geometry" />
        </mxCell>
        <mxCell id="nmnQj_uE-flhcafNi1ZN-114" value="&lt;div&gt;营业额&lt;/div&gt;" style="ellipse;whiteSpace=wrap;html=1;fillColor=#b0e3e6;strokeColor=#0e8088;" vertex="1" parent="1">
          <mxGeometry x="300" y="530" width="90" height="40" as="geometry" />
        </mxCell>
        <mxCell id="nmnQj_uE-flhcafNi1ZN-115" style="edgeStyle=none;rounded=0;orthogonalLoop=1;jettySize=auto;html=1;exitX=1;exitY=0.5;exitDx=0;exitDy=0;entryX=0;entryY=0.25;entryDx=0;entryDy=0;startArrow=none;startFill=0;endArrow=none;endFill=0;" edge="1" parent="1" source="nmnQj_uE-flhcafNi1ZN-116" target="nmnQj_uE-flhcafNi1ZN-50">
          <mxGeometry relative="1" as="geometry" />
        </mxCell>
        <mxCell id="nmnQj_uE-flhcafNi1ZN-116" value="销售量" style="ellipse;whiteSpace=wrap;html=1;fillColor=#b0e3e6;strokeColor=#0e8088;" vertex="1" parent="1">
          <mxGeometry x="480" y="420" width="90" height="40" as="geometry" />
        </mxCell>
      </root>
    </mxGraphModel>
  </diagram>
</mxfile>
